<mxfile host="app.diagrams.net" modified="2022-12-09T05:46:15.038Z" agent="5.0 (Macintosh; Intel Mac OS X 10_15_7) AppleWebKit/605.1.15 (KHTML, like Gecko) Version/16.1 Safari/605.1.15" etag="8L7ifysfTp-r-dAqI-sX" version="20.6.0" type="github" pages="3">
  <diagram id="pHeiPu1yL_SYzJfTL6LU" name="Страница 1">
    <mxGraphModel dx="2178" dy="887" grid="1" gridSize="10" guides="1" tooltips="1" connect="1" arrows="1" fold="1" page="1" pageScale="1" pageWidth="827" pageHeight="1169" math="0" shadow="0">
      <root>
        <mxCell id="0" />
        <mxCell id="1" parent="0" />
        <mxCell id="phqFT9OOha7G20cfcMo7-29" style="edgeStyle=orthogonalEdgeStyle;rounded=0;orthogonalLoop=1;jettySize=auto;html=1;exitX=1;exitY=0.75;exitDx=0;exitDy=0;entryX=0;entryY=0.5;entryDx=0;entryDy=0;" parent="1" source="phqFT9OOha7G20cfcMo7-4" target="phqFT9OOha7G20cfcMo7-21" edge="1">
          <mxGeometry relative="1" as="geometry" />
        </mxCell>
        <mxCell id="phqFT9OOha7G20cfcMo7-4" value="подбор цветовой схемы" style="rounded=0;whiteSpace=wrap;html=1;" parent="1" vertex="1">
          <mxGeometry x="360" y="240" width="160" height="80" as="geometry" />
        </mxCell>
        <mxCell id="phqFT9OOha7G20cfcMo7-5" value="1.2" style="rounded=0;whiteSpace=wrap;html=1;" parent="1" vertex="1">
          <mxGeometry x="360" y="320" width="80" height="40" as="geometry" />
        </mxCell>
        <mxCell id="phqFT9OOha7G20cfcMo7-6" value="" style="rounded=0;whiteSpace=wrap;html=1;" parent="1" vertex="1">
          <mxGeometry x="440" y="320" width="80" height="40" as="geometry" />
        </mxCell>
        <mxCell id="phqFT9OOha7G20cfcMo7-7" value="Создание дизайна приложения" style="text;html=1;strokeColor=none;fillColor=none;align=center;verticalAlign=middle;whiteSpace=wrap;rounded=0;" parent="1" vertex="1">
          <mxGeometry x="360" y="160" width="160" height="40" as="geometry" />
        </mxCell>
        <mxCell id="phqFT9OOha7G20cfcMo7-27" style="edgeStyle=orthogonalEdgeStyle;rounded=0;orthogonalLoop=1;jettySize=auto;html=1;exitX=1;exitY=0.75;exitDx=0;exitDy=0;entryX=0;entryY=0.5;entryDx=0;entryDy=0;" parent="1" source="phqFT9OOha7G20cfcMo7-8" target="phqFT9OOha7G20cfcMo7-21" edge="1">
          <mxGeometry relative="1" as="geometry" />
        </mxCell>
        <mxCell id="phqFT9OOha7G20cfcMo7-8" value="продумывание интерфейса&amp;nbsp;" style="rounded=0;whiteSpace=wrap;html=1;" parent="1" vertex="1">
          <mxGeometry x="360" y="560" width="160" height="80" as="geometry" />
        </mxCell>
        <mxCell id="phqFT9OOha7G20cfcMo7-9" value="1.4" style="rounded=0;whiteSpace=wrap;html=1;" parent="1" vertex="1">
          <mxGeometry x="360" y="640" width="80" height="40" as="geometry" />
        </mxCell>
        <mxCell id="phqFT9OOha7G20cfcMo7-10" value="" style="rounded=0;whiteSpace=wrap;html=1;" parent="1" vertex="1">
          <mxGeometry x="440" y="640" width="80" height="40" as="geometry" />
        </mxCell>
        <mxCell id="phqFT9OOha7G20cfcMo7-23" style="edgeStyle=orthogonalEdgeStyle;rounded=0;orthogonalLoop=1;jettySize=auto;html=1;exitX=1;exitY=0.75;exitDx=0;exitDy=0;entryX=0;entryY=0.5;entryDx=0;entryDy=0;" parent="1" source="phqFT9OOha7G20cfcMo7-12" target="phqFT9OOha7G20cfcMo7-18" edge="1">
          <mxGeometry relative="1" as="geometry" />
        </mxCell>
        <mxCell id="phqFT9OOha7G20cfcMo7-12" value="Принять спецификации UI/UX дизайна" style="rounded=0;whiteSpace=wrap;html=1;" parent="1" vertex="1">
          <mxGeometry x="-40" y="400" width="160" height="80" as="geometry" />
        </mxCell>
        <mxCell id="phqFT9OOha7G20cfcMo7-13" value="1.1" style="rounded=0;whiteSpace=wrap;html=1;" parent="1" vertex="1">
          <mxGeometry x="-40" y="480" width="80" height="40" as="geometry" />
        </mxCell>
        <mxCell id="phqFT9OOha7G20cfcMo7-14" value="" style="rounded=0;whiteSpace=wrap;html=1;" parent="1" vertex="1">
          <mxGeometry x="40" y="480" width="80" height="40" as="geometry" />
        </mxCell>
        <mxCell id="phqFT9OOha7G20cfcMo7-28" style="edgeStyle=orthogonalEdgeStyle;rounded=0;orthogonalLoop=1;jettySize=auto;html=1;exitX=1;exitY=0.75;exitDx=0;exitDy=0;entryX=0;entryY=0.5;entryDx=0;entryDy=0;" parent="1" source="phqFT9OOha7G20cfcMo7-15" target="phqFT9OOha7G20cfcMo7-21" edge="1">
          <mxGeometry relative="1" as="geometry" />
        </mxCell>
        <mxCell id="phqFT9OOha7G20cfcMo7-15" value="подбор шрифтов" style="rounded=0;whiteSpace=wrap;html=1;" parent="1" vertex="1">
          <mxGeometry x="360" y="400" width="160" height="80" as="geometry" />
        </mxCell>
        <mxCell id="phqFT9OOha7G20cfcMo7-16" value="1.3" style="rounded=0;whiteSpace=wrap;html=1;" parent="1" vertex="1">
          <mxGeometry x="360" y="480" width="80" height="40" as="geometry" />
        </mxCell>
        <mxCell id="phqFT9OOha7G20cfcMo7-17" value="" style="rounded=0;whiteSpace=wrap;html=1;" parent="1" vertex="1">
          <mxGeometry x="440" y="480" width="80" height="40" as="geometry" />
        </mxCell>
        <mxCell id="phqFT9OOha7G20cfcMo7-24" style="edgeStyle=orthogonalEdgeStyle;rounded=0;orthogonalLoop=1;jettySize=auto;html=1;exitX=1;exitY=0.5;exitDx=0;exitDy=0;entryX=0;entryY=0.75;entryDx=0;entryDy=0;" parent="1" source="phqFT9OOha7G20cfcMo7-18" target="phqFT9OOha7G20cfcMo7-4" edge="1">
          <mxGeometry relative="1" as="geometry" />
        </mxCell>
        <mxCell id="phqFT9OOha7G20cfcMo7-25" style="edgeStyle=orthogonalEdgeStyle;rounded=0;orthogonalLoop=1;jettySize=auto;html=1;exitX=1;exitY=0.5;exitDx=0;exitDy=0;entryX=0;entryY=0.75;entryDx=0;entryDy=0;" parent="1" source="phqFT9OOha7G20cfcMo7-18" target="phqFT9OOha7G20cfcMo7-15" edge="1">
          <mxGeometry relative="1" as="geometry" />
        </mxCell>
        <mxCell id="phqFT9OOha7G20cfcMo7-26" style="edgeStyle=orthogonalEdgeStyle;rounded=0;orthogonalLoop=1;jettySize=auto;html=1;exitX=1;exitY=0.5;exitDx=0;exitDy=0;entryX=0;entryY=0.75;entryDx=0;entryDy=0;" parent="1" source="phqFT9OOha7G20cfcMo7-18" target="phqFT9OOha7G20cfcMo7-8" edge="1">
          <mxGeometry relative="1" as="geometry" />
        </mxCell>
        <mxCell id="phqFT9OOha7G20cfcMo7-18" value="&amp;amp;" style="rounded=0;whiteSpace=wrap;html=1;fontSize=28;" parent="1" vertex="1">
          <mxGeometry x="200" y="420" width="80" height="80" as="geometry" />
        </mxCell>
        <mxCell id="phqFT9OOha7G20cfcMo7-20" value="" style="endArrow=none;html=1;rounded=0;exitX=0.125;exitY=1.016;exitDx=0;exitDy=0;exitPerimeter=0;" parent="1" edge="1">
          <mxGeometry width="50" height="50" relative="1" as="geometry">
            <mxPoint x="210" y="500.28" as="sourcePoint" />
            <mxPoint x="210" y="420" as="targetPoint" />
          </mxGeometry>
        </mxCell>
        <mxCell id="phqFT9OOha7G20cfcMo7-31" style="edgeStyle=orthogonalEdgeStyle;rounded=0;orthogonalLoop=1;jettySize=auto;html=1;exitX=1;exitY=0.5;exitDx=0;exitDy=0;entryX=0;entryY=0.75;entryDx=0;entryDy=0;" parent="1" source="phqFT9OOha7G20cfcMo7-21" target="uaIBYyf9UKOz9Rb-aBuM-1" edge="1">
          <mxGeometry relative="1" as="geometry">
            <mxPoint x="840" y="460" as="targetPoint" />
          </mxGeometry>
        </mxCell>
        <mxCell id="phqFT9OOha7G20cfcMo7-21" value="&amp;amp;" style="rounded=0;whiteSpace=wrap;html=1;fontSize=28;" parent="1" vertex="1">
          <mxGeometry x="600" y="419.72" width="80" height="80" as="geometry" />
        </mxCell>
        <mxCell id="phqFT9OOha7G20cfcMo7-22" value="" style="endArrow=none;html=1;rounded=0;exitX=0.125;exitY=1.016;exitDx=0;exitDy=0;exitPerimeter=0;" parent="1" edge="1">
          <mxGeometry width="50" height="50" relative="1" as="geometry">
            <mxPoint x="610" y="499.9999999999998" as="sourcePoint" />
            <mxPoint x="610" y="419.72" as="targetPoint" />
          </mxGeometry>
        </mxCell>
        <mxCell id="uaIBYyf9UKOz9Rb-aBuM-1" value="создать дизайн макета" style="rounded=0;whiteSpace=wrap;html=1;" parent="1" vertex="1">
          <mxGeometry x="760" y="400" width="160" height="80" as="geometry" />
        </mxCell>
        <mxCell id="uaIBYyf9UKOz9Rb-aBuM-2" value="1.5" style="rounded=0;whiteSpace=wrap;html=1;" parent="1" vertex="1">
          <mxGeometry x="760" y="480" width="80" height="40" as="geometry" />
        </mxCell>
        <mxCell id="uaIBYyf9UKOz9Rb-aBuM-3" value="" style="rounded=0;whiteSpace=wrap;html=1;" parent="1" vertex="1">
          <mxGeometry x="840" y="480" width="80" height="40" as="geometry" />
        </mxCell>
        <mxCell id="uaIBYyf9UKOz9Rb-aBuM-4" value="" style="endArrow=none;html=1;rounded=0;exitX=1;exitY=0.75;exitDx=0;exitDy=0;" parent="1" source="uaIBYyf9UKOz9Rb-aBuM-1" edge="1">
          <mxGeometry width="50" height="50" relative="1" as="geometry">
            <mxPoint x="960" y="465" as="sourcePoint" />
            <mxPoint x="1040" y="460" as="targetPoint" />
          </mxGeometry>
        </mxCell>
        <mxCell id="uaIBYyf9UKOz9Rb-aBuM-5" value="Новый дизайн&amp;nbsp;&lt;br&gt;приложения" style="text;html=1;align=center;verticalAlign=middle;resizable=0;points=[];autosize=1;strokeColor=none;fillColor=none;" parent="1" vertex="1">
          <mxGeometry x="950" y="420" width="110" height="40" as="geometry" />
        </mxCell>
      </root>
    </mxGraphModel>
  </diagram>
  <diagram id="vUfeuw4V5Fi9LfTIXy7X" name="Страница 2">
    <mxGraphModel dx="1940" dy="731" grid="1" gridSize="10" guides="1" tooltips="1" connect="1" arrows="1" fold="1" page="1" pageScale="1" pageWidth="827" pageHeight="1169" math="0" shadow="0">
      <root>
        <mxCell id="0" />
        <mxCell id="1" parent="0" />
        <mxCell id="lS7wUc9Zbr_w-jcoBIgn-5" value="Создание &amp;nbsp;северной части" style="text;html=1;strokeColor=none;fillColor=none;align=center;verticalAlign=middle;whiteSpace=wrap;rounded=0;" vertex="1" parent="1">
          <mxGeometry x="200" y="320" width="160" height="40" as="geometry" />
        </mxCell>
        <mxCell id="lS7wUc9Zbr_w-jcoBIgn-34" style="edgeStyle=orthogonalEdgeStyle;rounded=0;orthogonalLoop=1;jettySize=auto;html=1;exitX=1;exitY=0.75;exitDx=0;exitDy=0;entryX=0;entryY=0.75;entryDx=0;entryDy=0;" edge="1" parent="1" source="lS7wUc9Zbr_w-jcoBIgn-11" target="lS7wUc9Zbr_w-jcoBIgn-31">
          <mxGeometry relative="1" as="geometry" />
        </mxCell>
        <mxCell id="lS7wUc9Zbr_w-jcoBIgn-11" value="Изучение рынка аренды серверов в датацентрах" style="rounded=0;whiteSpace=wrap;html=1;" vertex="1" parent="1">
          <mxGeometry x="-40" y="400" width="160" height="80" as="geometry" />
        </mxCell>
        <mxCell id="lS7wUc9Zbr_w-jcoBIgn-12" value="1.1" style="rounded=0;whiteSpace=wrap;html=1;" vertex="1" parent="1">
          <mxGeometry x="-40" y="480" width="80" height="40" as="geometry" />
        </mxCell>
        <mxCell id="lS7wUc9Zbr_w-jcoBIgn-13" value="" style="rounded=0;whiteSpace=wrap;html=1;" vertex="1" parent="1">
          <mxGeometry x="40" y="480" width="80" height="40" as="geometry" />
        </mxCell>
        <mxCell id="lS7wUc9Zbr_w-jcoBIgn-38" style="edgeStyle=orthogonalEdgeStyle;rounded=0;orthogonalLoop=1;jettySize=auto;html=1;exitX=1;exitY=0.75;exitDx=0;exitDy=0;entryX=0;entryY=0.75;entryDx=0;entryDy=0;" edge="1" parent="1" source="lS7wUc9Zbr_w-jcoBIgn-31" target="lS7wUc9Zbr_w-jcoBIgn-35">
          <mxGeometry relative="1" as="geometry" />
        </mxCell>
        <mxCell id="lS7wUc9Zbr_w-jcoBIgn-31" value="Выбор хостинг провайдера&amp;nbsp;" style="rounded=0;whiteSpace=wrap;html=1;" vertex="1" parent="1">
          <mxGeometry x="200" y="400" width="160" height="80" as="geometry" />
        </mxCell>
        <mxCell id="lS7wUc9Zbr_w-jcoBIgn-32" value="1.2" style="rounded=0;whiteSpace=wrap;html=1;" vertex="1" parent="1">
          <mxGeometry x="200" y="480" width="80" height="40" as="geometry" />
        </mxCell>
        <mxCell id="lS7wUc9Zbr_w-jcoBIgn-33" value="" style="rounded=0;whiteSpace=wrap;html=1;" vertex="1" parent="1">
          <mxGeometry x="280" y="480" width="80" height="40" as="geometry" />
        </mxCell>
        <mxCell id="lS7wUc9Zbr_w-jcoBIgn-35" value="Настройка доступа к серверам" style="rounded=0;whiteSpace=wrap;html=1;" vertex="1" parent="1">
          <mxGeometry x="440" y="400" width="160" height="80" as="geometry" />
        </mxCell>
        <mxCell id="lS7wUc9Zbr_w-jcoBIgn-36" value="1.3" style="rounded=0;whiteSpace=wrap;html=1;" vertex="1" parent="1">
          <mxGeometry x="440" y="480" width="80" height="40" as="geometry" />
        </mxCell>
        <mxCell id="lS7wUc9Zbr_w-jcoBIgn-37" value="" style="rounded=0;whiteSpace=wrap;html=1;" vertex="1" parent="1">
          <mxGeometry x="520" y="480" width="80" height="40" as="geometry" />
        </mxCell>
        <mxCell id="lS7wUc9Zbr_w-jcoBIgn-41" value="" style="endArrow=none;html=1;rounded=0;entryX=1;entryY=0.75;entryDx=0;entryDy=0;" edge="1" parent="1" target="lS7wUc9Zbr_w-jcoBIgn-35">
          <mxGeometry width="50" height="50" relative="1" as="geometry">
            <mxPoint x="780" y="460" as="sourcePoint" />
            <mxPoint x="390" y="430" as="targetPoint" />
          </mxGeometry>
        </mxCell>
        <mxCell id="lS7wUc9Zbr_w-jcoBIgn-42" value="Сервер для приложения&amp;nbsp;" style="text;html=1;strokeColor=none;fillColor=none;align=center;verticalAlign=middle;whiteSpace=wrap;rounded=0;" vertex="1" parent="1">
          <mxGeometry x="640" y="400" width="120" height="60" as="geometry" />
        </mxCell>
      </root>
    </mxGraphModel>
  </diagram>
  <diagram id="jRvEYHJzkRKngVjWPKC3" name="Страница 3">
    <mxGraphModel dx="2404" dy="1035" grid="1" gridSize="10" guides="1" tooltips="1" connect="1" arrows="1" fold="1" page="1" pageScale="1" pageWidth="827" pageHeight="1169" math="0" shadow="0">
      <root>
        <mxCell id="0" />
        <mxCell id="1" parent="0" />
        <mxCell id="Eg2g2f-2ylk-IXJm4SSd-1" value="Создание &amp;nbsp;Backend части" style="text;html=1;strokeColor=none;fillColor=none;align=center;verticalAlign=middle;whiteSpace=wrap;rounded=0;" vertex="1" parent="1">
          <mxGeometry x="440" y="240" width="160" height="40" as="geometry" />
        </mxCell>
        <mxCell id="Eg2g2f-2ylk-IXJm4SSd-2" style="edgeStyle=orthogonalEdgeStyle;rounded=0;orthogonalLoop=1;jettySize=auto;html=1;exitX=1;exitY=0.75;exitDx=0;exitDy=0;entryX=0;entryY=0.75;entryDx=0;entryDy=0;" edge="1" parent="1" source="Eg2g2f-2ylk-IXJm4SSd-3" target="Eg2g2f-2ylk-IXJm4SSd-7">
          <mxGeometry relative="1" as="geometry" />
        </mxCell>
        <mxCell id="Eg2g2f-2ylk-IXJm4SSd-3" value="Изучение предметной области&amp;nbsp;" style="rounded=0;whiteSpace=wrap;html=1;" vertex="1" parent="1">
          <mxGeometry x="-40" y="480" width="160" height="80" as="geometry" />
        </mxCell>
        <mxCell id="Eg2g2f-2ylk-IXJm4SSd-4" value="1.4" style="rounded=0;whiteSpace=wrap;html=1;" vertex="1" parent="1">
          <mxGeometry x="-40" y="560" width="80" height="40" as="geometry" />
        </mxCell>
        <mxCell id="Eg2g2f-2ylk-IXJm4SSd-5" value="" style="rounded=0;whiteSpace=wrap;html=1;" vertex="1" parent="1">
          <mxGeometry x="40" y="560" width="80" height="40" as="geometry" />
        </mxCell>
        <mxCell id="Eg2g2f-2ylk-IXJm4SSd-6" style="edgeStyle=orthogonalEdgeStyle;rounded=0;orthogonalLoop=1;jettySize=auto;html=1;exitX=1;exitY=0.75;exitDx=0;exitDy=0;entryX=0;entryY=0.75;entryDx=0;entryDy=0;" edge="1" parent="1" source="Eg2g2f-2ylk-IXJm4SSd-7" target="Eg2g2f-2ylk-IXJm4SSd-10">
          <mxGeometry relative="1" as="geometry" />
        </mxCell>
        <mxCell id="Eg2g2f-2ylk-IXJm4SSd-7" value="Выделение &amp;nbsp;сущностей в предметной области&amp;nbsp;" style="rounded=0;whiteSpace=wrap;html=1;" vertex="1" parent="1">
          <mxGeometry x="200" y="480" width="160" height="80" as="geometry" />
        </mxCell>
        <mxCell id="Eg2g2f-2ylk-IXJm4SSd-8" value="1.5" style="rounded=0;whiteSpace=wrap;html=1;" vertex="1" parent="1">
          <mxGeometry x="200" y="560" width="80" height="40" as="geometry" />
        </mxCell>
        <mxCell id="Eg2g2f-2ylk-IXJm4SSd-9" value="" style="rounded=0;whiteSpace=wrap;html=1;" vertex="1" parent="1">
          <mxGeometry x="280" y="560" width="80" height="40" as="geometry" />
        </mxCell>
        <mxCell id="nE89OrHVGSs8tnag2ERi-4" style="edgeStyle=orthogonalEdgeStyle;rounded=0;orthogonalLoop=1;jettySize=auto;html=1;exitX=1;exitY=0.75;exitDx=0;exitDy=0;entryX=0;entryY=0.75;entryDx=0;entryDy=0;" edge="1" parent="1" source="Eg2g2f-2ylk-IXJm4SSd-10" target="nE89OrHVGSs8tnag2ERi-1">
          <mxGeometry relative="1" as="geometry" />
        </mxCell>
        <mxCell id="Eg2g2f-2ylk-IXJm4SSd-10" value="Создание схемы &amp;nbsp;базы данных" style="rounded=0;whiteSpace=wrap;html=1;" vertex="1" parent="1">
          <mxGeometry x="440" y="480" width="160" height="80" as="geometry" />
        </mxCell>
        <mxCell id="Eg2g2f-2ylk-IXJm4SSd-11" value="1.6" style="rounded=0;whiteSpace=wrap;html=1;" vertex="1" parent="1">
          <mxGeometry x="440" y="560" width="80" height="40" as="geometry" />
        </mxCell>
        <mxCell id="Eg2g2f-2ylk-IXJm4SSd-12" value="" style="rounded=0;whiteSpace=wrap;html=1;" vertex="1" parent="1">
          <mxGeometry x="520" y="560" width="80" height="40" as="geometry" />
        </mxCell>
        <mxCell id="nE89OrHVGSs8tnag2ERi-8" style="edgeStyle=orthogonalEdgeStyle;rounded=0;orthogonalLoop=1;jettySize=auto;html=1;exitX=1;exitY=0.75;exitDx=0;exitDy=0;entryX=0;entryY=0.5;entryDx=0;entryDy=0;" edge="1" parent="1" source="nE89OrHVGSs8tnag2ERi-1" target="4SxJHXnfxU7Slz5TqzXe-12">
          <mxGeometry relative="1" as="geometry">
            <mxPoint x="920" y="540" as="targetPoint" />
          </mxGeometry>
        </mxCell>
        <mxCell id="nE89OrHVGSs8tnag2ERi-1" value="Создание &amp;nbsp;БД на сервере" style="rounded=0;whiteSpace=wrap;html=1;" vertex="1" parent="1">
          <mxGeometry x="680" y="480" width="160" height="80" as="geometry" />
        </mxCell>
        <mxCell id="nE89OrHVGSs8tnag2ERi-2" value="1.7" style="rounded=0;whiteSpace=wrap;html=1;" vertex="1" parent="1">
          <mxGeometry x="680" y="560" width="80" height="40" as="geometry" />
        </mxCell>
        <mxCell id="nE89OrHVGSs8tnag2ERi-3" value="" style="rounded=0;whiteSpace=wrap;html=1;" vertex="1" parent="1">
          <mxGeometry x="760" y="560" width="80" height="40" as="geometry" />
        </mxCell>
        <mxCell id="4SxJHXnfxU7Slz5TqzXe-7" style="edgeStyle=orthogonalEdgeStyle;rounded=0;orthogonalLoop=1;jettySize=auto;html=1;exitX=1;exitY=0.5;exitDx=0;exitDy=0;entryX=0;entryY=0.75;entryDx=0;entryDy=0;fontSize=25;" edge="1" parent="1" source="4SxJHXnfxU7Slz5TqzXe-1" target="4SxJHXnfxU7Slz5TqzXe-4">
          <mxGeometry relative="1" as="geometry">
            <Array as="points">
              <mxPoint x="-90" y="470" />
              <mxPoint x="-90" y="380" />
            </Array>
          </mxGeometry>
        </mxCell>
        <mxCell id="4SxJHXnfxU7Slz5TqzXe-8" style="edgeStyle=orthogonalEdgeStyle;rounded=0;orthogonalLoop=1;jettySize=auto;html=1;exitX=1;exitY=0.5;exitDx=0;exitDy=0;entryX=0;entryY=0.75;entryDx=0;entryDy=0;fontSize=25;" edge="1" parent="1" source="4SxJHXnfxU7Slz5TqzXe-1" target="Eg2g2f-2ylk-IXJm4SSd-3">
          <mxGeometry relative="1" as="geometry" />
        </mxCell>
        <mxCell id="4SxJHXnfxU7Slz5TqzXe-1" value="&lt;font style=&quot;font-size: 25px;&quot;&gt;&amp;amp;&lt;/font&gt;" style="rounded=0;whiteSpace=wrap;html=1;" vertex="1" parent="1">
          <mxGeometry x="-220" y="430" width="80" height="80" as="geometry" />
        </mxCell>
        <mxCell id="4SxJHXnfxU7Slz5TqzXe-2" value="" style="endArrow=none;html=1;rounded=0;entryX=0.25;entryY=0;entryDx=0;entryDy=0;exitX=0.25;exitY=1;exitDx=0;exitDy=0;" edge="1" parent="1" source="4SxJHXnfxU7Slz5TqzXe-1" target="4SxJHXnfxU7Slz5TqzXe-1">
          <mxGeometry width="50" height="50" relative="1" as="geometry">
            <mxPoint x="-220" y="579" as="sourcePoint" />
            <mxPoint x="-170" y="529" as="targetPoint" />
          </mxGeometry>
        </mxCell>
        <mxCell id="4SxJHXnfxU7Slz5TqzXe-3" style="edgeStyle=orthogonalEdgeStyle;rounded=0;orthogonalLoop=1;jettySize=auto;html=1;exitX=1;exitY=0.75;exitDx=0;exitDy=0;entryX=0;entryY=0.75;entryDx=0;entryDy=0;" edge="1" parent="1" source="4SxJHXnfxU7Slz5TqzXe-4">
          <mxGeometry relative="1" as="geometry">
            <mxPoint x="440" y="390" as="targetPoint" />
          </mxGeometry>
        </mxCell>
        <mxCell id="4SxJHXnfxU7Slz5TqzXe-4" value="Установка &amp;nbsp;БД на сервер" style="rounded=0;whiteSpace=wrap;html=1;" vertex="1" parent="1">
          <mxGeometry x="200" y="330" width="160" height="80" as="geometry" />
        </mxCell>
        <mxCell id="4SxJHXnfxU7Slz5TqzXe-5" value="1.2" style="rounded=0;whiteSpace=wrap;html=1;" vertex="1" parent="1">
          <mxGeometry x="200" y="410" width="80" height="40" as="geometry" />
        </mxCell>
        <mxCell id="4SxJHXnfxU7Slz5TqzXe-6" value="" style="rounded=0;whiteSpace=wrap;html=1;" vertex="1" parent="1">
          <mxGeometry x="280" y="410" width="80" height="40" as="geometry" />
        </mxCell>
        <mxCell id="4SxJHXnfxU7Slz5TqzXe-14" style="edgeStyle=orthogonalEdgeStyle;rounded=0;orthogonalLoop=1;jettySize=auto;html=1;exitX=1;exitY=0.75;exitDx=0;exitDy=0;entryX=0;entryY=0.5;entryDx=0;entryDy=0;fontSize=25;" edge="1" parent="1" source="4SxJHXnfxU7Slz5TqzXe-9" target="4SxJHXnfxU7Slz5TqzXe-12">
          <mxGeometry relative="1" as="geometry">
            <Array as="points">
              <mxPoint x="890" y="380" />
              <mxPoint x="890" y="460" />
            </Array>
          </mxGeometry>
        </mxCell>
        <mxCell id="4SxJHXnfxU7Slz5TqzXe-9" value="Настройка прав доступа" style="rounded=0;whiteSpace=wrap;html=1;" vertex="1" parent="1">
          <mxGeometry x="440" y="330" width="160" height="80" as="geometry" />
        </mxCell>
        <mxCell id="4SxJHXnfxU7Slz5TqzXe-10" value="1.3" style="rounded=0;whiteSpace=wrap;html=1;" vertex="1" parent="1">
          <mxGeometry x="440" y="410" width="80" height="40" as="geometry" />
        </mxCell>
        <mxCell id="4SxJHXnfxU7Slz5TqzXe-11" value="" style="rounded=0;whiteSpace=wrap;html=1;" vertex="1" parent="1">
          <mxGeometry x="520" y="410" width="80" height="40" as="geometry" />
        </mxCell>
        <mxCell id="4SxJHXnfxU7Slz5TqzXe-12" value="&lt;font style=&quot;font-size: 25px;&quot;&gt;&amp;amp;&lt;/font&gt;" style="rounded=0;whiteSpace=wrap;html=1;" vertex="1" parent="1">
          <mxGeometry x="940" y="420" width="80" height="80" as="geometry" />
        </mxCell>
        <mxCell id="4SxJHXnfxU7Slz5TqzXe-13" value="" style="endArrow=none;html=1;rounded=0;entryX=0.75;entryY=0;entryDx=0;entryDy=0;exitX=0.75;exitY=1;exitDx=0;exitDy=0;" edge="1" parent="1" source="4SxJHXnfxU7Slz5TqzXe-12" target="4SxJHXnfxU7Slz5TqzXe-12">
          <mxGeometry width="50" height="50" relative="1" as="geometry">
            <mxPoint x="940" y="569" as="sourcePoint" />
            <mxPoint x="990" y="519" as="targetPoint" />
          </mxGeometry>
        </mxCell>
        <mxCell id="4SxJHXnfxU7Slz5TqzXe-17" value="" style="endArrow=none;html=1;rounded=0;fontSize=25;entryX=1;entryY=0.5;entryDx=0;entryDy=0;" edge="1" parent="1" target="4SxJHXnfxU7Slz5TqzXe-12">
          <mxGeometry width="50" height="50" relative="1" as="geometry">
            <mxPoint x="1180" y="460" as="sourcePoint" />
            <mxPoint x="640" y="520" as="targetPoint" />
          </mxGeometry>
        </mxCell>
        <mxCell id="4SxJHXnfxU7Slz5TqzXe-18" value="&lt;font style=&quot;font-size: 13px;&quot;&gt;Backend часть&lt;/font&gt;" style="text;html=1;align=left;verticalAlign=middle;resizable=0;points=[];autosize=1;strokeColor=none;fillColor=none;fontSize=25;" vertex="1" parent="1">
          <mxGeometry x="1040" y="420" width="110" height="40" as="geometry" />
        </mxCell>
      </root>
    </mxGraphModel>
  </diagram>
</mxfile>
